HIERARCHY
ROOT Hips
{
	OFFSET	0.00	0.00	0.00
	CHANNELS 6 Xposition Yposition Zposition Zrotation Xrotation Yrotation
	JOINT LeftUpLeg
	{
		OFFSET	 0.126116	-0.014019	-0.065224
		CHANNELS 3 Zrotation Xrotation Yrotation
		JOINT LeftLeg
		{
			OFFSET	 0.000000	 0.000000	 0.569914
			CHANNELS 3 Zrotation Xrotation Yrotation
			JOINT LeftFoot
			{
				OFFSET	 0.000000	 0.000000	 0.544423
				CHANNELS 3 Zrotation Xrotation Yrotation
				JOINT LeftToeBase
				{
					OFFSET	 0.000000	 0.000000	 0.207117
					CHANNELS 3 Zrotation Xrotation Yrotation
					End Site
					{
						OFFSET	 0.000000	 0.000000	 0.207117
					}
				}
			}
		}
	}
	JOINT RightUpLeg
	{
		OFFSET	-0.124023	-0.008373	-0.065224
		CHANNELS 3 Zrotation Xrotation Yrotation
		JOINT RightLeg
		{
			OFFSET	 0.000000	 0.000000	 0.570047
			CHANNELS 3 Zrotation Xrotation Yrotation
			JOINT RightFoot
			{
				OFFSET	 0.000000	 0.000000	 0.544354
				CHANNELS 3 Zrotation Xrotation Yrotation
				JOINT RightToeBase
				{
					OFFSET	 0.000000	 0.000000	 0.207540
					CHANNELS 3 Zrotation Xrotation Yrotation
					End Site
					{
						OFFSET	 0.000000	 0.000000	 0.207540
					}
				}
			}
		}
	}
	JOINT Spine
	{
		OFFSET	 0.000184	-0.007763	 0.117403
		CHANNELS 3 Zrotation Xrotation Yrotation
		JOINT Spine1
		{
			OFFSET	 0.000000	 0.000000	 0.137269
			CHANNELS 3 Zrotation Xrotation Yrotation
			JOINT Spine2
			{
				OFFSET	 0.000000	 0.000000	 0.156879
				CHANNELS 3 Zrotation Xrotation Yrotation
				JOINT LeftShoulder
				{
					OFFSET	 0.080501	-0.002496	 0.160144
					CHANNELS 3 Zrotation Xrotation Yrotation
					JOINT LeftArm
					{
						OFFSET	 0.000000	 0.000000	 0.164363
						CHANNELS 3 Zrotation Xrotation Yrotation
						JOINT LeftForeArm
						{
							OFFSET	 0.000000	 0.000000	 0.364576
							CHANNELS 3 Zrotation Xrotation Yrotation
							JOINT LeftHand
							{
								OFFSET	 0.000000	 0.000000	 0.360812
								CHANNELS 3 Zrotation Xrotation Yrotation
								JOINT LeftHandIndex1
								{
									OFFSET	 0.000000	 0.000000	 0.086006
									CHANNELS 3 Zrotation Xrotation Yrotation
									JOINT LeftHandIndex2
									{
										OFFSET	 0.000000	 0.000000	 0.047237
										CHANNELS 3 Zrotation Xrotation Yrotation
										JOINT LeftHandIndex3
										{
											OFFSET	-0.004284	-0.000551	 0.038165
											CHANNELS 3 Zrotation Xrotation Yrotation
											End Site
											{
												OFFSET	-0.004284	-0.000551	 0.038165
											}
										}
									}
								}
							}
						}
					}
				}
				JOINT Neck
				{
					OFFSET	 0.000000	 0.000000	 0.176489
					CHANNELS 3 Zrotation Xrotation Yrotation
					JOINT Head
					{
						OFFSET	 0.000000	-0.001747	 0.077940
						CHANNELS 3 Zrotation Xrotation Yrotation
						End Site
						{
							OFFSET	 0.000000	-0.001747	 0.077940
						}
					}
				}
				JOINT RightShoulder
				{
					OFFSET	-0.080363	 0.000306	 0.159706
					CHANNELS 3 Zrotation Xrotation Yrotation
					JOINT RightArm
					{
						OFFSET	 0.000000	 0.000000	 0.164196
						CHANNELS 3 Zrotation Xrotation Yrotation
						JOINT RightForeArm
						{
							OFFSET	 0.000000	 0.000000	 0.365611
							CHANNELS 3 Zrotation Xrotation Yrotation
							JOINT RightHand
							{
								OFFSET	 0.000000	 0.000000	 0.360648
								CHANNELS 3 Zrotation Xrotation Yrotation
								JOINT RightHandIndex1
								{
									OFFSET	 0.000000	 0.000000	 0.069977
									CHANNELS 3 Zrotation Xrotation Yrotation
									JOINT RightHandIndex2
									{
										OFFSET	 0.000000	 0.000000	 0.052305
										CHANNELS 3 Zrotation Xrotation Yrotation
										JOINT RightHandIndex3
										{
											OFFSET	 0.009002	-0.000782	 0.042196
											CHANNELS 3 Zrotation Xrotation Yrotation
											End Site
											{
												OFFSET	 0.009002	-0.000782	 0.042196
											}
										}
									}
								}
							}
						}
					}
				}
			}
		}
	}
}
MOTION
Frames:    7
Frame Time: 0.03333334
-0.717368	-1.662278	 1.274122	 179.589800	 0.938359	 2.104073	-8.766403	-3.364954	 177.090800	 6.165165	-14.016010	 1.978424	-35.336670	 71.820110	 16.131040	-2.385833	 28.452760	 0.000004	-1.195579	-2.120023	 178.382400	-19.764080	-10.077040	-1.563011	 37.690820	 69.608470	-15.590330	 2.384659	 28.388700	-0.000001	-2.144020	-0.869922	-2.742892	-3.329047	 13.766570	-5.714923	 8.511908	-17.516360	 11.439660	-91.776240	 78.527360	-180.000000	-8.586542	-13.142420	-11.176010	-4.527130	-0.090088	-0.485024	 7.580804	-1.169407	-5.638625	-4.131196	 21.524690	 0.986298	-5.167839	 0.733520	 3.519257	-1.378229	 35.397820	-2.634230	 0.000022	-3.783157	-0.089647	-15.064520	 8.966678	 1.188003	 89.782100	 78.203900	 180.000000	 5.918980	-5.857261	 8.781203	 5.920695	-0.060238	 0.497388	 1.773467	-11.469200	 30.390670	 5.715225	 19.176060	-3.692089	 5.027514	 0.245388	-9.378011	-2.350882	 35.473990	 5.254307
-0.721012	-1.662069	 1.276071	-177.601600	 5.388608	-0.055373	-5.951465	-6.768069	 178.794700	-0.694199	-10.154170	 0.221801	-20.244660	 57.787310	 9.331024	-2.385833	 28.452760	 0.000004	-4.355005	-8.918488	-179.853200	-4.634268	-14.864600	 1.613485	 8.174417	 73.909310	 0.634619	 2.384659	 28.388700	-0.000001	-5.522177	 6.218925	 1.927357	-3.004683	-8.765778	-15.190310	 8.708031	-8.065969	 17.700960	-91.776250	 78.527400	-179.999900	-31.798140	-9.064942	-16.887300	-4.628874	-0.088881	-0.483269	 9.563767	-2.139930	-4.689932	-4.131196	 21.524690	 0.986298	-5.167839	 0.733520	 3.519257	-1.378229	 35.397820	-2.634230	 1.685581	 6.234300	-0.181254	-14.275900	-7.426517	-4.372528	 89.782090	 78.203870	 180.000000	-0.168342	-4.022495	 7.566116	-6.490084	-0.166190	 0.474029	-24.632900	 25.344750	 79.807230	 5.715225	 19.176060	-3.692089	 5.027514	 0.245388	-9.378011	-2.350882	 35.473990	 5.254307
-0.720781	-1.661997	 1.276060	-176.602100	 6.030541	-1.679721	-4.258188	-5.990920	-179.500400	-0.474229	-6.681790	 0.172002	-17.867150	 50.999070	 7.539198	-2.385833	 28.452760	 0.000004	-0.003331	-10.414440	-178.252000	-5.358279	-16.993650	 1.624395	-4.300087	 83.167950	 14.574180	 2.384659	 28.388700	-0.000001	-6.758146	 7.217299	 3.178864	-3.211429	-12.675340	-13.936880	 8.220725	-6.309765	 16.214870	-91.776100	 78.527400	 179.999900	-39.440120	-6.641115	-17.902590	-5.860639	-0.078501	-0.485289	 7.558223	-3.357345	-4.136790	-4.131196	 21.524690	 0.986298	-5.167839	 0.733520	 3.519257	-1.378229	 35.397820	-2.634230	 1.519715	 8.087370	 0.830747	-13.829600	-9.383023	-4.801531	 89.782170	 78.203920	 179.999900	-0.329584	-3.898335	 7.576896	-8.002679	-0.178999	 0.470570	-31.829750	 30.452070	 93.203490	 5.715225	 19.176060	-3.692089	 5.027514	 0.245388	-9.378011	-2.350882	 35.473990	 5.254307
-0.720698	-1.661978	 1.276008	-176.566800	 5.990874	-1.740608	-4.209785	-5.912543	-179.437000	-0.231188	-6.597252	 0.197779	-18.103650	 50.531070	 7.655432	-2.385833	 28.452760	 0.000004	 0.457284	-10.386430	-178.182400	-5.629683	-17.087280	 1.552681	-3.972900	 83.881980	 14.472880	 2.384659	 28.388700	-0.000001	-6.802166	 7.187723	 3.216511	-3.229211	-12.561590	-13.788130	 8.223370	-6.343556	 16.062610	-91.776190	 78.527420	-180.000000	-39.205310	-6.687774	-17.833230	-5.970866	-0.077554	-0.485369	 7.453344	-3.420552	-4.099902	-4.131196	 21.524690	 0.986298	-5.167839	 0.733520	 3.519257	-1.378229	 35.397820	-2.634230	 1.488174	 8.056665	 0.925661	-13.790900	-9.256333	-4.747941	 89.782170	 78.203890	 179.999900	-0.430961	-3.935495	 7.587656	-7.965617	-0.178482	 0.469922	-31.742730	 30.367070	 92.868520	 5.715225	 19.176060	-3.692089	 5.027514	 0.245388	-9.378011	-2.350882	 35.473990	 5.254307
-0.720627	-1.661960	 1.275964	-176.537800	 5.957880	-1.791268	-4.169897	-5.848079	-179.384700	-0.024544	-6.529464	 0.219269	-18.298170	 50.145840	 7.744242	-2.385833	 28.452760	 0.000004	 0.838372	-10.362660	-178.125100	-5.856347	-17.164720	 1.492091	-3.750902	 84.473950	 14.440730	 2.384659	 28.388700	-0.000001	-6.838880	 7.163077	 3.247210	-3.244194	-12.466330	-13.663570	 8.225451	-6.372226	 15.935840	-91.776180	 78.527400	-180.000000	-39.010950	-6.724934	-17.774640	-6.062071	-0.076886	-0.486068	 7.366381	-3.472986	-4.069255	-4.131196	 21.524690	 0.986298	-5.167839	 0.733520	 3.519257	-1.378229	 35.397820	-2.634230	 1.462082	 8.031155	 1.004275	-13.758780	-9.151457	-4.703650	 89.782100	 78.203920	 180.000000	-0.518794	-3.965195	 7.596319	-7.935061	-0.178405	 0.470596	-31.666380	 30.296800	 92.588540	 5.715225	 19.176060	-3.692089	 5.027514	 0.245388	-9.378011	-2.350882	 35.473990	 5.254307
-0.720550	-1.661937	 1.275918	-176.507200	 5.922947	-1.844717	-4.127817	-5.782296	-179.329900	 0.199048	-6.463737	 0.242283	-18.502740	 49.743620	 7.831470	-2.385833	 28.452760	 0.000004	 1.239761	-10.337290	-178.065100	-6.097334	-17.246830	 1.427070	-3.583872	 85.098790	 14.476850	 2.384659	 28.388700	-0.000001	-6.877937	 7.136436	 3.278904	-3.260414	-12.363700	-13.531540	 8.227692	-6.403623	 15.802090	-91.776160	 78.527360	 180.000000	-38.808330	-6.761959	-17.712140	-6.158292	-0.076128	-0.486632	 7.274559	-3.528305	-4.036790	-4.131196	 21.524690	 0.986298	-5.167839	 0.733520	 3.519257	-1.378229	 35.397820	-2.634230	 1.434597	 8.004183	 1.087188	-13.725010	-9.040759	-4.657064	 89.782130	 78.203890	 180.000000	-0.607558	-3.994614	 7.607110	-7.902658	-0.178021	 0.470437	-31.590030	 30.221890	 92.291400	 5.715225	 19.176060	-3.692089	 5.027514	 0.245388	-9.378011	-2.350882	 35.473990	 5.254307
-0.720413	-1.661889	 1.275837	-176.454600	 5.863757	-1.937180	-4.056787	-5.674753	-179.236400	 0.597927	-6.362882	 0.282793	-18.855260	 49.062820	 7.966139	-2.385833	 28.452760	 0.000004	 1.926802	-10.294200	-177.962500	-6.515603	-17.388510	 1.312713	-3.553255	 86.171620	 14.801970	 2.384659	 28.388700	-0.000001	-6.945961	 7.088191	 3.331902	-3.289551	-12.183880	-13.302200	 8.231247	-6.459204	 15.571510	-91.776110	 78.527420	 179.999900	-38.453720	-6.823959	-17.601960	-6.323289	-0.074646	-0.486473	 7.116900	-3.623258	-3.980803	-4.131196	 21.524690	 0.986298	-5.167839	 0.733520	 3.519257	-1.378229	 35.397820	-2.634230	 1.387522	 7.957752	 1.229404	-13.667160	-8.850870	-4.577449	 89.782150	 78.203890	 179.999900	-0.768726	-4.041898	 7.626479	-7.847395	-0.177857	 0.471311	-31.449410	 30.092430	 91.775840	 5.715225	 19.176060	-3.692089	 5.027514	 0.245388	-9.378011	-2.350882	 35.473990	 5.254307
